HIERARCHY
ROOT Hips
{
	OFFSET 0.000000 0.000000 0.000000
	CHANNELS 6 Xposition Yposition Zposition Zrotation Yrotation Xrotation 
	JOINT LHipJoint
	{
		OFFSET 0.000000 0.000000 0.000000
		CHANNELS 3 Zrotation Yrotation Xrotation
		JOINT LeftUpLeg
		{
			OFFSET 1.363060 -1.794630 0.839290
			CHANNELS 3 Zrotation Yrotation Xrotation
			JOINT LeftLeg
			{
				OFFSET 2.448110 -6.726130 0.000000
				CHANNELS 3 Zrotation Yrotation Xrotation
				JOINT LeftFoot
				{
					OFFSET 2.562200 -7.039590 0.000000
					CHANNELS 3 Zrotation Yrotation Xrotation
					JOINT LeftToeBase
					{
						OFFSET 0.157640 -0.433110 2.322550
						CHANNELS 3 Zrotation Yrotation Xrotation
						End Site
						{
							OFFSET 0.000000 0.000000 0.000000
						}
					}
				}
			}
		}
	}
	JOINT RHipJoint
	{
		OFFSET 0.000000 0.000000 0.000000
		CHANNELS 3 Zrotation Yrotation Xrotation
		JOINT RightUpLeg
		{
			OFFSET -1.305520 -1.794630 0.839290
			CHANNELS 3 Zrotation Yrotation Xrotation
			JOINT RightLeg
			{
				OFFSET -2.542530 -6.985550 0.000000
				CHANNELS 3 Zrotation Yrotation Xrotation
				JOINT RightFoot
				{
					OFFSET -2.568260 -7.056230 0.000000
					CHANNELS 3 Zrotation Yrotation Xrotation
					JOINT RightToeBase
					{
						OFFSET -0.164730 -0.452590 2.363150
						CHANNELS 3 Zrotation Yrotation Xrotation
						End Site
						{
							OFFSET 0.000000 0.000000 0.000000
						}
					}
				}
			}
		}
	}
	JOINT LowerBack
	{
		OFFSET 0.000000 0.000000 0.000000
		CHANNELS 3 Zrotation Yrotation Xrotation
		JOINT Spine
		{
			OFFSET 0.028270 2.035590 -0.193380
			CHANNELS 3 Zrotation Yrotation Xrotation
			JOINT Spine1
			{
				OFFSET 0.056720 2.048850 -0.042750
				CHANNELS 3 Zrotation Yrotation Xrotation
				JOINT Neck
				{
					OFFSET 0.000000 0.000000 0.000000
					CHANNELS 3 Zrotation Yrotation Xrotation
					JOINT Neck1
					{
						OFFSET -0.054170 1.746240 0.172020
						CHANNELS 3 Zrotation Yrotation Xrotation
						JOINT Head
						{
							OFFSET 0.104070 1.761360 -0.123970
							CHANNELS 3 Zrotation Yrotation Xrotation
							End Site
							{
								OFFSET 0.000000 0.000000 0.000000
							}
						}
					}
				}
				JOINT LeftShoulder
				{
					OFFSET 0.000000 0.000000 0.000000
					CHANNELS 3 Zrotation Yrotation Xrotation
					JOINT LeftArm
					{
						OFFSET 3.362410 1.200890 -0.311210
						CHANNELS 3 Zrotation Yrotation Xrotation
						JOINT LeftForeArm
						{
							OFFSET 4.983000 -0.000000 -0.000000
							CHANNELS 3 Zrotation Yrotation Xrotation
							JOINT LeftHand
							{
								OFFSET 3.483560 -0.000000 -0.000000
								CHANNELS 3 Zrotation Yrotation Xrotation
								JOINT LeftFingerBase
								{
									OFFSET 0.000000 0.000000 0.000000
									CHANNELS 3 Zrotation Yrotation Xrotation
									JOINT LeftHandIndex1
									{
										OFFSET 0.715260 -0.000000 -0.000000
										CHANNELS 3 Zrotation Yrotation Xrotation
										End Site
										{
											OFFSET 0.000000 0.000000 0.000000
										}
									}
								}
								JOINT LThumb
								{
									OFFSET 0.000000 0.000000 0.000000
									CHANNELS 3 Zrotation Yrotation Xrotation
									End Site
									{
										OFFSET 0.000000 0.000000 0.000000
									}
								}
							}
						}
					}
				}
				JOINT RightShoulder
				{
					OFFSET 0.000000 0.000000 0.000000
					CHANNELS 3 Zrotation Yrotation Xrotation
					JOINT RightArm
					{
						OFFSET -3.136600 1.374050 -0.404650
						CHANNELS 3 Zrotation Yrotation Xrotation
						JOINT RightForeArm
						{
							OFFSET -5.241900 -0.000000 -0.000000
							CHANNELS 3 Zrotation Yrotation Xrotation
							JOINT RightHand
							{
								OFFSET -3.444170 -0.000000 -0.000000
								CHANNELS 3 Zrotation Yrotation Xrotation
								JOINT RightFingerBase
								{
									OFFSET 0.000000 0.000000 0.000000
									CHANNELS 3 Zrotation Yrotation Xrotation
									JOINT RightHandIndex1
									{
										OFFSET -0.622530 -0.000000 -0.000000
										CHANNELS 3 Zrotation Yrotation Xrotation
										End Site
										{
											OFFSET 0.000000 0.000000 0.000000
										}
									}
								}
								JOINT RThumb
								{
									OFFSET 0.000000 0.000000 0.000000
									CHANNELS 3 Zrotation Yrotation Xrotation
									End Site
									{
										OFFSET 0.000000 0.000000 0.000000
									}
								}
							}
						}
					}
				}
			}
		}
	}
}
MOTION
Frames: 12
Frame Time: 0.008333
-2.506008 17.709152 4.744390 -123.226281 -82.516639 132.846408 0.101756 -1.025204 -1.519399 -9.277016 -11.165102 -23.138634 0.564922 6.653394 17.100096 -1.172012 9.597789 3.200187 0.023700 -0.993600 -2.731200 -0.494049 1.042832 -1.865180 28.068611 -0.462772 -6.898697 -3.935979 -12.594305 36.565464 0.485456 -5.426399 -1.196176 -0.012400 0.717900 -1.972900 3.796707 2.004748 2.566362 0.688892 2.998823 -5.132519 3.733130 1.148409 -1.034188 -5.561566 -4.019227 -17.703024 6.674620 -4.836257 9.803609 2.912500 -2.132000 8.435400 6.279628 2.974648 0.735036 -92.589488 10.041870 1.668750 11.713213 -28.893765 -3.025289 0.983922 2.813530 34.462151 2.907463 20.496621 1.123200 -7.125000 0.000000 0.000000 -22.743300 46.282300 -0.758600 -3.489308 -3.671416 -1.413259 91.811795 -9.079742 -20.027011 -4.991794 12.471096 -0.324576 -0.769410 0.483118 52.202804 -4.090690 -26.442455 1.428600 7.125000 0.000000 0.000000 27.746600 -53.936500 -6.479500 
-2.654184 17.713213 4.753898 -126.104506 -82.557863 135.614010 0.085813 -1.004122 -1.499925 -9.784589 -11.001597 -22.718643 0.590978 6.757991 17.383157 -1.148105 9.431819 3.023231 0.016400 -0.827000 -2.272800 -0.497872 1.063263 -1.880856 27.532171 -0.344009 -7.560003 -4.269547 -13.021459 38.108813 0.543169 -5.893527 -0.603286 -0.014100 0.766700 -2.107200 3.568367 1.868017 2.654362 0.693446 2.825506 -5.105352 3.807438 1.067166 -1.041699 -5.391091 -3.785186 -17.676846 6.548688 -4.559522 9.859306 2.865900 -2.004600 8.421000 6.302500 2.979291 0.731024 -92.474901 9.980647 1.228235 11.496603 -28.608893 -2.970186 1.016287 2.803411 34.846723 2.946344 20.576820 1.135700 -7.125000 0.000000 0.000000 -22.752500 46.354800 -0.801800 -3.488790 -3.681111 -1.427649 91.549634 -10.036537 -21.403328 -4.929715 12.353824 -0.320685 -0.762531 0.477974 52.774206 -3.447218 -26.087267 1.134300 7.125000 0.000000 0.000000 28.099500 -53.499400 -6.260200 
-2.801369 17.717769 4.763011 -128.997402 -82.591087 138.389633 0.067510 -0.984086 -1.480316 -10.299220 -10.827285 -22.275013 0.615815 6.856876 17.650443 -1.124185 9.262408 2.831815 0.011000 -0.676200 -1.858300 -0.503698 1.082354 -1.896420 26.991719 -0.213996 -8.258999 -4.615583 -13.439470 39.654882 0.603872 -6.395127 -0.033605 -0.015300 0.798100 -2.193400 3.333998 1.727226 2.745485 0.698448 2.646858 -5.077871 3.883245 0.983377 -1.050896 -5.221459 -3.548928 -17.645598 6.421940 -4.279826 9.916767 2.819000 -1.875800 8.407200 6.325870 2.983847 0.726918 -92.350144 9.900038 0.783007 11.277669 -28.318552 -2.915484 1.051642 2.792388 35.239902 3.002139 20.670484 1.153400 -7.125000 0.000000 0.000000 -22.754200 46.440500 -0.852500 -3.488278 -3.690539 -1.444325 91.251154 -10.969374 -22.424277 -4.894261 12.292517 -0.322454 -0.758230 0.468660 53.032247 -2.826887 -25.757681 0.858300 7.125000 0.000000 0.000000 28.447200 -53.092600 -6.052600 
-2.947861 17.722920 4.772024 -131.890967 -82.614245 141.161237 0.046817 -0.965338 -1.460706 -10.817151 -10.642456 -21.806204 0.638555 6.947484 17.894889 -1.100819 9.093779 2.624438 0.006900 -0.535600 -1.471800 -0.511541 1.099824 -1.911741 26.450623 -0.072590 -8.993880 -4.971991 -13.845943 41.195816 0.666998 -6.923782 0.504618 -0.016000 0.816000 -2.242600 3.095754 1.583533 2.839943 0.703826 2.464375 -5.050316 3.959776 0.897779 -1.062066 -5.051318 -3.310998 -17.609997 6.292858 -3.998080 9.976871 2.770700 -1.746400 8.394600 6.349766 2.988351 0.722542 -92.214619 9.797426 0.333249 11.055792 -28.022181 -2.860842 1.090083 2.780261 35.641731 3.075719 20.777273 1.176700 -7.125000 0.000000 0.000000 -22.747400 46.539000 -0.910300 -3.487726 -3.700002 -1.463070 90.920460 -11.872650 -23.111469 -4.881542 12.279567 -0.328671 -0.756462 0.455588 52.991737 -2.230448 -25.462206 0.599800 7.125000 0.000000 0.000000 28.794200 -52.723000 -5.863900 
-3.093164 17.728466 4.780641 -134.769266 -82.628323 143.915774 0.023770 -0.948144 -1.441263 -11.336569 -10.448986 -21.313504 0.658478 7.027529 18.109891 -1.078193 8.927592 2.403359 0.004000 -0.407800 -1.120500 -0.521360 1.115425 -1.926646 25.910674 0.079760 -9.763276 -5.336048 -14.238292 42.722086 0.732534 -7.473754 1.005817 -0.016100 0.819200 -2.251600 2.853884 1.437381 2.937047 0.710001 2.278414 -5.023146 4.037738 0.810397 -1.075817 -4.883228 -3.072220 -17.568266 6.163789 -3.714819 10.036793 2.722500 -1.616300 8.382000 6.373631 2.992776 0.718014 -92.067689 9.676303 -0.107567 10.836288 -27.726578 -2.807763 1.131049 2.767614 36.041504 3.165991 20.900530 1.205700 -7.125000 0.000000 0.000000 -22.734400 46.653200 -0.977000 -3.486915 -3.709439 -1.483589 90.561486 -12.741172 -23.495242 -4.889010 12.309262 -0.338502 -0.756818 0.439655 52.676612 -1.673328 -25.204922 0.363900 7.125000 0.000000 0.000000 29.129200 -52.396200 -5.697100 
-3.237377 17.734310 4.788862 -137.621283 -82.632336 146.640253 -0.001465 -0.932754 -1.422205 -11.854897 -10.247608 -20.797038 0.674957 7.095413 18.290839 -1.056779 8.765555 2.166198 0.002100 -0.294000 -0.807700 -0.533067 1.128944 -1.941065 25.374077 0.242892 -10.564965 -5.705106 -14.614768 44.225382 0.800167 -8.038569 1.465349 -0.015700 0.808700 -2.222600 2.609533 1.289622 3.035319 0.716927 2.090086 -4.996009 4.117340 0.721838 -1.090369 -4.717013 -2.833420 -17.523014 6.033503 -3.431147 10.097564 2.673600 -1.486300 8.370300 6.397588 2.997266 0.713234 -91.910552 9.533358 -0.541368 10.618737 -27.431151 -2.755896 1.174850 2.752903 36.442479 3.281448 21.030435 1.242100 -7.125000 0.000000 0.000000 -22.704800 46.775900 -1.047800 -3.485906 -3.719161 -1.505581 90.177859 -13.566709 -23.613416 -4.913808 12.375566 -0.351056 -0.759238 0.421320 52.116360 -1.153415 -24.999432 0.147900 7.125000 0.000000 0.000000 29.462100 -52.122200 -5.563600 
-3.380303 17.740550 4.796786 -140.413079 -82.628409 149.302730 -0.028476 -0.919463 -1.403864 -12.369416 -10.043187 -20.257727 0.687853 7.150704 18.437025 -1.036445 8.608338 1.910162 0.000900 -0.190500 -0.523500 -0.546394 1.140103 -1.954878 24.843557 0.413706 -11.396666 -6.075710 -14.973102 45.695499 0.869935 -8.615046 1.880437 -0.014800 0.785300 -2.158400 2.365740 1.140354 3.134978 0.724842 1.899232 -4.968536 4.197729 0.631943 -1.104819 -4.549602 -2.594960 -17.475250 5.898479 -3.147745 10.156990 2.622200 -1.356800 8.358800 6.421704 3.001874 0.708077 -91.743250 9.365312 -0.965826 10.403817 -27.136811 -2.705360 1.221012 2.736042 36.843632 3.419808 21.164601 1.285400 -7.125000 0.000000 0.000000 -22.659200 46.905000 -1.121200 -3.484576 -3.729637 -1.528727 89.774210 -14.341142 -23.510864 -4.952986 12.471750 -0.365465 -0.763318 0.401583 51.348054 -0.686375 -24.853097 -0.043200 7.125000 0.000000 0.000000 29.785300 -51.911600 -5.471700 
-3.521843 17.747087 4.804313 -143.137787 -82.617524 151.897121 -0.056976 -0.908322 -1.386255 -12.879411 -9.835831 -19.698179 0.696894 7.192696 18.546382 -1.017223 8.455131 1.634615 0.000200 -0.098000 -0.269200 -0.561114 1.148847 -1.967865 24.320148 0.591859 -12.256406 -6.444457 -15.311816 47.122950 0.941633 -9.196311 2.244067 -0.013400 0.748000 -2.055800 2.122039 0.989777 3.235820 0.733975 1.706342 -4.941920 4.279771 0.540798 -1.121360 -4.383428 -2.357541 -17.423875 5.761105 -2.865284 10.216601 2.569500 -1.228100 8.347900 6.445246 3.006408 0.702638 -91.565589 9.177725 -1.369191 10.197361 -26.851620 -2.657716 1.268774 2.718993 37.232202 3.573213 21.315299 1.334400 -7.125000 0.000000 0.000000 -22.608600 47.049900 -1.203200 -3.482619 -3.740686 -1.552829 89.353874 -15.061621 -23.227370 -5.004712 12.593505 -0.381311 -0.768795 0.381095 50.404408 -0.277488 -24.772351 -0.209400 7.125000 0.000000 0.000000 30.097200 -51.768400 -5.426400 
-3.662193 17.753625 4.811247 -145.783472 -82.599634 154.415408 -0.086588 -0.899306 -1.369416 -13.382812 -9.625180 -19.118956 0.701928 7.221214 18.618297 -0.999001 8.306596 1.339709 -0.000000 -0.012900 -0.035500 -0.576968 1.155191 -1.979931 23.806115 0.776387 -13.138522 -6.807367 -15.628928 48.496735 1.014791 -9.772637 2.547335 -0.011900 0.705500 -1.938900 1.879383 0.838945 3.337964 0.744283 1.512692 -4.916545 4.363386 0.449132 -1.141187 -4.224049 -2.122159 -17.366433 5.628570 -2.584194 10.274870 2.519100 -1.099900 8.336900 6.467979 3.011166 0.696901 -91.377346 8.971315 -1.748779 9.999686 -26.576014 -2.612913 1.318241 2.701097 37.608242 3.746034 21.478792 1.390200 -7.125000 0.000000 0.000000 -22.547900 47.207900 -1.291800 -3.480131 -3.752040 -1.577413 88.922277 -15.727110 -22.804478 -5.068156 12.738466 -0.398292 -0.775274 0.360721 49.323928 0.061763 -24.758367 -0.347500 7.125000 0.000000 0.000000 30.389800 -51.696200 -5.430800 
-3.801058 17.760360 4.817883 -148.338184 -82.576883 156.842655 -0.116816 -0.892467 -1.353583 -13.878758 -9.412333 -18.523538 0.703173 7.236793 18.654866 -0.981924 8.163803 1.027018 0.000100 0.063000 0.173000 -0.593661 1.159138 -1.991075 23.302720 0.965116 -14.041007 -7.160696 -15.923581 49.807641 1.089755 -10.343865 2.790691 -0.010300 0.654100 -1.797600 1.639417 0.688183 3.440597 0.755741 1.318682 -4.891818 4.448305 0.357001 -1.162116 -4.067134 -1.889091 -17.306555 5.494912 -2.305362 10.331544 2.468000 -0.973200 8.326200 6.489779 3.016171 0.690817 -91.178998 8.743959 -2.097781 9.813367 -26.314048 -2.571466 1.368825 2.682737 37.963535 3.936888 21.654904 1.452900 -7.125000 0.000000 0.000000 -22.477900 47.378900 -1.386700 -3.476950 -3.764241 -1.602169 88.483794 -16.328598 -22.293129 -5.140853 12.900426 -0.415903 -0.782510 0.341120 48.151819 0.327456 -24.813225 -0.457100 7.125000 0.000000 0.000000 30.661300 -51.696300 -5.487700 
-3.938339 17.767095 4.823925 -150.776048 -82.550296 159.155938 -0.147063 -0.887782 -1.338968 -14.363722 -9.198507 -17.916095 0.701083 7.240288 18.658455 -0.966704 8.032385 0.695503 0.000400 0.125400 0.344500 -0.610777 1.160720 -2.001190 22.813386 1.157595 -14.962899 -7.501140 -16.195318 51.048052 1.166709 -10.907031 2.972227 -0.008500 0.595500 -1.636500 1.405181 0.537940 3.543678 0.769065 1.124491 -4.867617 4.534729 0.264721 -1.183603 -3.909851 -1.659000 -17.246211 5.355809 -2.030166 10.386110 2.414000 -0.848500 8.316000 6.510851 3.021429 0.684275 -90.972018 8.492676 -2.415382 9.638461 -26.066388 -2.533318 1.420385 2.663549 38.296839 4.147862 21.839656 1.522800 -7.125000 0.000000 0.000000 -22.395400 47.560000 -1.485700 -3.472899 -3.777658 -1.626797 88.041819 -16.858467 -21.740451 -5.219635 13.072602 -0.433668 -0.790144 0.323096 46.934856 0.509819 -24.932939 -0.534800 7.125000 0.000000 0.000000 30.901000 -51.766400 -5.594500 
-4.074034 17.773731 4.829571 -153.100125 -82.521565 161.358273 -0.176923 -0.885004 -1.325503 -14.838506 -8.981967 -17.298606 0.695919 7.232699 18.631812 -0.953168 7.910992 0.343150 0.000700 0.168000 0.461400 -0.628097 1.160191 -2.010366 22.338227 1.350871 -15.897891 -7.824261 -16.442974 52.206282 1.245633 -11.460093 3.090295 -0.006700 0.527700 -1.450000 1.176292 0.388717 3.646669 0.783877 0.931006 -4.843934 4.622707 0.172572 -1.205163 -3.758199 -1.432574 -17.182988 5.219397 -1.758334 10.436210 2.361200 -0.725600 8.305000 6.530653 3.027425 0.677383 -90.755933 8.219453 -2.692541 9.478061 -25.837447 -2.499096 1.472148 2.644009 38.599827 4.376497 22.032675 1.599500 -7.125000 0.000000 0.000000 -22.302200 47.750500 -1.588400 -3.468082 -3.791946 -1.650733 87.602586 -17.314736 -21.184763 -5.303004 13.251357 -0.451036 -0.798018 0.307308 45.709890 0.600759 -25.115283 -0.577300 7.125000 0.000000 0.000000 31.102900 -51.907400 -5.751900 
